<?xml version="1.0" encoding="UTF-8" standalone="no"?>
<svg width="128" height="128" viewBox="0 0 128 128" fill="none" xmlns="http://www.w3.org/2000/svg">
  <rect width="128" height="128" rx="64" fill="#7289DA"/>
  <path d="M85.4148 46.5768C85.3971 46.5591 85.3794 46.5414 85.3617 46.5237C80.7801 42.1268 73.2502 41.3333 73.2502 41.3333L72.4508 42.2321C79.2266 44.0117 82.3904 46.7089 85.4148 50.0352C79.2266 46.5237 71.8919 43.029 64.0161 43.029C56.1402 43.029 48.8056 46.5237 42.6173 50.0352C45.6417 46.7089 49.1726 43.9763 55.5813 42.2321L54.782 41.3333C54.782 41.3333 47.2521 42.1268 42.6528 46.5591C42.635 46.5768 42.6173 46.5945 42.5996 46.6122C36.4114 56.2685 33.7344 69.2277 33.7344 82.1691C33.7344 82.2399 33.752 82.3107 33.7697 82.3815C40.6455 91.6097 52.3186 92.0359 52.3186 92.0359L54.6292 88.7096C50.153 87.0946 45.9708 84.4328 42.6528 80.1413C46.6869 83.1245 53.1002 86.4155 63.9984 86.4155C74.8965 86.4155 81.3098 83.1245 85.3439 80.1413C82.026 84.4328 77.8437 87.0946 73.3676 88.7096L75.6781 92.0359C75.6781 92.0359 87.3512 91.6097 94.227 82.3815C94.2447 82.3107 94.2624 82.2399 94.2624 82.1691C94.2624 69.2277 91.5854 56.2685 85.4148 46.5768ZM54.782 75.8794C51.5872 75.8794 48.9811 72.9493 48.9811 69.3672C48.9811 65.785 51.5872 62.8549 54.782 62.8549C57.9768 62.8549 60.5829 65.785 60.5829 69.3672C60.5829 72.9493 57.9768 75.8794 54.782 75.8794ZM73.2502 75.8794C70.0554 75.8794 67.4493 72.9493 67.4493 69.3672C67.4493 65.785 70.0554 62.8549 73.2502 62.8549C76.445 62.8549 79.0511 65.785 79.0511 69.3672C79.0511 72.9493 76.445 75.8794 73.2502 75.8794Z" fill="white"/>
</svg>